<!-- Generated by IcoMoon.io -->
<svg version="1.1" xmlns="http://www.w3.org/2000/svg" width="280" height="58" viewBox="0 0 154 32">
<title>header</title>
<path fill="#ffdf00" d="M12.905 27.628l-2.992-2.977c-0.098-0.098-0.259-0.098-0.357 0l-2.387 2.375c-0.098 0.098-0.098 0.257 0 0.355l3.859 3.841c1.036 1.031 2.716 1.031 3.753 0l3.859-3.841c0.098-0.098 0.098-0.257 0-0.355l-2.387-2.375c-0.098-0.098-0.259-0.098-0.357 0l-2.992 2.977z"></path>
<path fill="#ffdf00" d="M19.248 27.628l-2.992-2.977c-0.098-0.098-0.259-0.098-0.357 0l-2.387 2.375c-0.098 0.098-0.098 0.257 0 0.355l3.859 3.841c1.036 1.031 2.716 1.031 3.753 0l3.859-3.841c0.098-0.098 0.098-0.257 0-0.355l-2.387-2.375c-0.098-0.098-0.259-0.098-0.357 0l-2.992 2.977z"></path>
<path fill="#ffdf00" d="M16.076 25.297c1.407 0 2.547-1.135 2.547-2.535s-1.14-2.535-2.547-2.535c-1.407 0-2.547 1.135-2.547 2.535s1.141 2.535 2.547 2.535z"></path>
<path fill="#ffdf00" d="M19.248 4.367l2.992 2.977c0.098 0.098 0.259 0.098 0.357 0l2.387-2.375c0.098-0.098 0.098-0.257 0-0.355l-3.859-3.841c-1.036-1.031-2.716-1.031-3.753 0l-3.859 3.841c-0.098 0.098-0.098 0.257 0 0.355l2.387 2.375c0.098 0.098 0.259 0.098 0.357 0l2.992-2.977z"></path>
<path fill="#ffdf00" d="M12.905 4.367l2.992 2.977c0.098 0.098 0.259 0.098 0.357 0l2.387-2.375c0.098-0.098 0.098-0.257 0-0.355l-3.859-3.841c-1.036-1.031-2.716-1.031-3.753 0l-3.859 3.841c-0.098 0.098-0.098 0.257 0 0.355l2.387 2.375c0.098 0.098 0.259 0.098 0.357 0l2.992-2.977z"></path>
<path fill="#ffdf00" d="M16.076 11.768c1.407 0 2.547-1.135 2.547-2.535s-1.14-2.535-2.547-2.535-2.547 1.135-2.547 2.535c0 1.4 1.141 2.535 2.547 2.535z"></path>
<path fill="#ffdf00" d="M4.389 12.842l2.992-2.977c0.098-0.098 0.098-0.257 0-0.355l-2.387-2.375c-0.098-0.098-0.259-0.098-0.357 0l-3.859 3.841c-1.036 1.031-1.036 2.703 0 3.734l3.859 3.841c0.098 0.098 0.259 0.098 0.357 0l2.387-2.375c0.098-0.098 0.098-0.257 0-0.355l-2.992-2.977z"></path>
<path fill="#ffdf00" d="M4.389 19.153l2.992-2.977c0.098-0.098 0.098-0.257 0-0.355l-2.387-2.375c-0.098-0.098-0.259-0.098-0.357 0l-3.859 3.841c-1.036 1.031-1.036 2.703 0 3.734l3.859 3.841c0.098 0.098 0.259 0.098 0.357 0l2.387-2.375c0.098-0.098 0.098-0.257 0-0.355l-2.992-2.977z"></path>
<path fill="#ffdf00" d="M9.278 18.532c1.407 0 2.547-1.135 2.547-2.535s-1.14-2.535-2.547-2.535c-1.407 0-2.547 1.135-2.547 2.535s1.14 2.535 2.547 2.535z"></path>
<path fill="#ffdf00" d="M27.764 19.153l-2.992 2.977c-0.098 0.098-0.098 0.257 0 0.355l2.387 2.375c0.098 0.098 0.259 0.098 0.357 0l3.859-3.841c1.036-1.031 1.036-2.703 0-3.734l-3.859-3.841c-0.098-0.098-0.259-0.098-0.357 0l-2.387 2.375c-0.098 0.098-0.098 0.257 0 0.355l2.992 2.977z"></path>
<path fill="#ffdf00" d="M27.764 12.842l-2.992 2.977c-0.098 0.098-0.098 0.257 0 0.355l2.387 2.375c0.098 0.098 0.259 0.098 0.357 0l3.859-3.841c1.036-1.031 1.036-2.703 0-3.734l-3.859-3.841c-0.098-0.098-0.259-0.098-0.357 0l-2.387 2.375c-0.098 0.098-0.098 0.257 0 0.355l2.992 2.977z"></path>
<path fill="#ffdf00" d="M22.874 18.532c1.407 0 2.547-1.135 2.547-2.535s-1.14-2.535-2.547-2.535c-1.407 0-2.547 1.135-2.547 2.535s1.14 2.535 2.547 2.535z"></path>
<path fill="#ffdf00" d="M47.48 15.419c-0.517-0.523-1.13-0.785-1.838-0.785-0.774 0-1.434 0.272-1.981 0.817s-0.821 1.201-0.821 1.971c0 0.77 0.274 1.427 0.821 1.971s1.207 0.817 1.981 0.817c0.774 0 1.434-0.272 1.981-0.817 0.169-0.168 0.31-0.345 0.427-0.534l2.398 1.427c-0.233 0.391-0.515 0.751-0.842 1.078-0.526 0.523-1.13 0.925-1.816 1.21-0.686 0.283-1.402 0.425-2.146 0.425s-1.46-0.142-2.146-0.425c-0.686-0.283-1.291-0.687-1.816-1.21s-0.93-1.125-1.214-1.808c-0.284-0.683-0.427-1.395-0.427-2.135s0.143-1.452 0.427-2.135c0.284-0.683 0.69-1.284 1.214-1.808 0.526-0.523 1.13-0.925 1.816-1.21 0.686-0.283 1.402-0.425 2.146-0.425s1.46 0.143 2.146 0.425c0.686 0.283 1.291 0.687 1.816 1.21s0.93 1.125 1.216 1.808c0.254 0.617 0.397 1.257 0.427 1.916l-6.283 1.905-0.744-2.69 3.257-0.999z"></path>
<path fill="#ffdf00" d="M56.284 17.422l-3.853-5.576h3.502l2.101 3.039 2.1-3.039h3.503l-3.851 5.576 3.853 5.576h-3.502l-2.1-3.039-2.101 3.039h-3.503l3.851-5.576z"></path>
<path fill="#ffdf00" d="M72.84 18.86l2.398 1.427c-0.233 0.391-0.515 0.751-0.842 1.078-0.526 0.523-1.13 0.925-1.816 1.21-0.686 0.283-1.402 0.425-2.146 0.425s-1.46-0.142-2.146-0.425c-0.686-0.283-1.29-0.687-1.816-1.21s-0.93-1.125-1.214-1.808c-0.284-0.683-0.428-1.395-0.428-2.135s0.143-1.452 0.428-2.135c0.284-0.683 0.69-1.284 1.214-1.808s1.13-0.925 1.816-1.21c0.686-0.283 1.402-0.425 2.146-0.425s1.459 0.143 2.146 0.425c0.686 0.283 1.29 0.687 1.816 1.21 0.329 0.328 0.609 0.687 0.842 1.078l-2.398 1.427c-0.118-0.189-0.258-0.366-0.427-0.534-0.547-0.544-1.208-0.817-1.981-0.817s-1.434 0.272-1.981 0.817c-0.547 0.544-0.82 1.201-0.82 1.971s0.274 1.427 0.82 1.971c0.547 0.544 1.208 0.817 1.981 0.817s1.434-0.272 1.981-0.817c0.167-0.166 0.31-0.345 0.427-0.534z"></path>
<path fill="#ffdf00" d="M84.294 15.419c-0.517-0.523-1.13-0.785-1.838-0.785-0.774 0-1.434 0.272-1.981 0.817s-0.821 1.201-0.821 1.971c0 0.77 0.274 1.427 0.821 1.971s1.207 0.817 1.981 0.817c0.774 0 1.434-0.272 1.981-0.817 0.167-0.168 0.31-0.345 0.428-0.534l2.398 1.427c-0.233 0.391-0.515 0.751-0.842 1.078-0.525 0.523-1.13 0.925-1.816 1.21-0.686 0.283-1.402 0.425-2.146 0.425s-1.459-0.142-2.146-0.425c-0.686-0.283-1.29-0.687-1.816-1.21s-0.93-1.125-1.214-1.808c-0.284-0.683-0.428-1.395-0.428-2.135s0.143-1.452 0.428-2.135c0.284-0.683 0.69-1.284 1.214-1.808s1.13-0.925 1.816-1.21c0.686-0.283 1.402-0.425 2.146-0.425s1.46 0.143 2.146 0.425c0.686 0.283 1.291 0.687 1.816 1.21s0.93 1.125 1.214 1.808c0.257 0.617 0.398 1.257 0.428 1.916l-6.283 1.905-0.743-2.69 3.258-0.999z"></path>
<path fill="#ffdf00" d="M90.1 17.422v-8.364h2.802v8.364c0 0.77 0.274 1.427 0.821 1.971s1.207 0.817 1.981 0.817v2.788c-0.744 0-1.459-0.142-2.146-0.425s-1.29-0.687-1.816-1.21c-0.526-0.523-0.93-1.125-1.214-1.808-0.286-0.68-0.428-1.393-0.428-2.133z"></path>
<path fill="#ffdf00" d="M97.106 17.422v-8.364h2.802v8.364c0 0.77 0.274 1.427 0.821 1.971s1.207 0.817 1.981 0.817v2.788c-0.744 0-1.459-0.142-2.146-0.425s-1.29-0.687-1.816-1.21c-0.526-0.523-0.93-1.125-1.214-1.808-0.286-0.68-0.428-1.393-0.428-2.133z"></path>
<path fill="#ffdf00" d="M111.766 15.419c-0.517-0.523-1.13-0.785-1.838-0.785-0.774 0-1.434 0.272-1.981 0.817s-0.821 1.201-0.821 1.971c0 0.77 0.274 1.427 0.821 1.971s1.207 0.817 1.981 0.817c0.774 0 1.434-0.272 1.981-0.817 0.167-0.168 0.31-0.345 0.428-0.534l2.398 1.427c-0.233 0.391-0.515 0.751-0.842 1.078-0.525 0.523-1.13 0.925-1.816 1.21-0.686 0.283-1.402 0.425-2.146 0.425s-1.459-0.142-2.146-0.425c-0.686-0.283-1.29-0.687-1.816-1.21s-0.93-1.125-1.214-1.808c-0.284-0.683-0.428-1.395-0.428-2.135s0.143-1.452 0.428-2.135c0.284-0.683 0.69-1.284 1.214-1.808s1.13-0.925 1.816-1.21c0.686-0.283 1.402-0.425 2.146-0.425s1.46 0.143 2.146 0.425c0.686 0.283 1.291 0.687 1.816 1.21s0.93 1.125 1.214 1.808c0.257 0.617 0.398 1.257 0.428 1.916l-6.283 1.905-0.743-2.69 3.258-0.999z"></path>
<path fill="#ffdf00" d="M120.376 17.422v5.576h-2.802v-5.576c0-0.74 0.143-1.452 0.428-2.135s0.69-1.284 1.214-1.808c0.524-0.523 1.13-0.925 1.816-1.21 0.686-0.283 1.402-0.425 2.146-0.425s1.46 0.143 2.146 0.425c0.686 0.283 1.291 0.687 1.816 1.21s0.93 1.125 1.214 1.808c0.285 0.683 0.428 1.395 0.428 2.135v5.576h-2.802v-5.576c0-0.77-0.274-1.427-0.82-1.971s-1.208-0.817-1.981-0.817-1.434 0.272-1.981 0.817c-0.547 0.544-0.821 1.201-0.821 1.971z"></path>
<path fill="#ffdf00" d="M138.833 18.86l2.398 1.427c-0.233 0.391-0.515 0.751-0.842 1.078-0.526 0.523-1.13 0.925-1.816 1.21-0.686 0.283-1.402 0.425-2.146 0.425s-1.46-0.142-2.146-0.425c-0.686-0.283-1.29-0.687-1.816-1.21s-0.93-1.125-1.214-1.808c-0.284-0.683-0.428-1.395-0.428-2.135s0.143-1.452 0.428-2.135c0.284-0.683 0.69-1.284 1.214-1.808s1.13-0.925 1.816-1.21c0.686-0.283 1.402-0.425 2.146-0.425s1.459 0.143 2.146 0.425c0.686 0.283 1.29 0.687 1.816 1.21 0.329 0.328 0.609 0.687 0.842 1.078l-2.398 1.427c-0.118-0.189-0.258-0.366-0.427-0.534-0.547-0.544-1.208-0.817-1.981-0.817s-1.434 0.272-1.981 0.817c-0.547 0.544-0.821 1.201-0.821 1.971s0.274 1.427 0.821 1.971c0.547 0.544 1.207 0.817 1.981 0.817s1.434-0.272 1.981-0.817c0.169-0.166 0.312-0.345 0.427-0.534z"></path>
<path fill="#ffdf00" d="M150.715 15.419c-0.517-0.523-1.13-0.785-1.838-0.785-0.774 0-1.434 0.272-1.981 0.817s-0.821 1.201-0.821 1.971c0 0.77 0.274 1.427 0.821 1.971s1.207 0.817 1.981 0.817 1.434-0.272 1.981-0.817c0.167-0.168 0.31-0.345 0.427-0.534l2.398 1.427c-0.233 0.391-0.515 0.751-0.842 1.078-0.526 0.523-1.13 0.925-1.816 1.21-0.686 0.283-1.402 0.425-2.146 0.425s-1.459-0.142-2.146-0.425c-0.686-0.283-1.29-0.687-1.816-1.21s-0.93-1.125-1.214-1.808c-0.284-0.683-0.428-1.395-0.428-2.135s0.143-1.452 0.428-2.135c0.284-0.683 0.69-1.284 1.214-1.808s1.13-0.925 1.816-1.21c0.686-0.283 1.402-0.425 2.146-0.425s1.46 0.143 2.146 0.425c0.686 0.283 1.29 0.687 1.816 1.21s0.93 1.125 1.214 1.808c0.257 0.617 0.398 1.257 0.428 1.916l-6.283 1.905-0.745-2.688 3.261-1.002z"></path>
</svg>
